<?xml version="1.0" standalone="no"?>
<svg xmlns="http://www.w3.org/2000/svg" width="1in" height="1in" viewBox="-0.5 -1.25 2.5 2.5">
  <defs>
    <mask id="x">
      <rect x="-0.5" y="-1.25" width="2.5" height="2.5" fill="#fff"/>
      <g stroke="none" fill="#000">
        <path d="M-1 -1c0.364212423249 0 0.635787576751 2 1 2h0.7c-0.364212423249 0 -0.635787576751 -2 -1 -2z"/>
        <path d="M0.8 -1c0.364212423249 0 0.635787576751 2 1 2h0.7c-0.364212423249 0 -0.635787576751 -2 -1 -2z"/>
        <path d="M-0.533333333 0.55h1.05L-0.25 -0.1z"/>
        <path d="M0.9833333333 -0.55h1.1L1.75 0.1z"/>
      </g>
    </mask>
    <mask id="y">
      <rect x="-0.5" y="0.5" width="1.25" height="0.75" fill="#fff"/>
      <rect x="0.75" y="-1.25" width="1.25" height="0.75" fill="#fff"/>
    </mask>
  </defs>

  <rect x="-0.5" y="-1.25" width="2.5" height="2.5" fill="$BGCOLOR"/>
  <g stroke="none" fill="$FGCOLOR">
    <path d="M0 1c0.364212423249 0 0.635787576751 -2 1 -2h0.5c-0.364212423249 0 -0.635787576751 2 -1 2z" mask="url(#x)"/>
    <path d="M-1 -1c0.364212423249 0 0.635787576751 2 1 2h0.5c-0.364212423249 0 -0.635787576751 -2 -1 -2z" mask="url(#y)"/>
    <path d="M1 -1c0.364212423249 0 0.635787576751 2 1 2h0.5c-0.364212423249 0 -0.635787576751 -2 -1 -2z" mask="url(#y)"/>
    <path d="M-0.483333333 0.5h0.8L-0.25 0z"/>
    <path d="M1.183333333 -0.5h0.8L1.75 0z"/>
  </g>
</svg>
